<svg width="177" height="24" viewBox="0 0 177 24" fill="none" xmlns="http://www.w3.org/2000/svg">
<g clip-path="url(#clip0_1903_45)">
<g clip-path="url(#clip1_1903_45)">
<path d="M18.6317 6.82914V3.96875H4.54688V18.0325H18.6317V15.1721L11.5888 11.0006L18.6317 6.82914Z" fill="white"/>
<path d="M23.445 3.96875L18.6172 6.82914V15.1721L23.445 18.0325V3.96875Z" fill="white"/>
</g>
<path d="M36.0214 19.387C34.6025 19.387 33.3771 19.1371 32.3451 18.6372C31.3132 18.1374 30.4989 17.444 29.9023 16.5572C29.3219 15.6543 28.9833 14.6062 28.8865 13.413L32.0791 13.2195C32.1758 13.9612 32.3854 14.5901 32.7079 15.106C33.0465 15.622 33.4899 16.0171 34.0381 16.2912C34.6025 16.5491 35.2797 16.6781 36.0698 16.6781C36.747 16.6781 37.3194 16.5975 37.787 16.4363C38.2707 16.2589 38.6335 16.009 38.8753 15.6865C39.1333 15.3479 39.2623 14.9367 39.2623 14.453C39.2623 14.0177 39.1575 13.6307 38.9479 13.2921C38.7383 12.9374 38.3352 12.6229 37.7386 12.3488C37.142 12.0586 36.2552 11.7764 35.0781 11.5023C33.6592 11.1798 32.5225 10.8171 31.6679 10.414C30.8133 9.99473 30.1926 9.47876 29.8056 8.86604C29.4186 8.23721 29.2251 7.45519 29.2251 6.52C29.2251 5.52031 29.475 4.64155 29.9749 3.88372C30.4747 3.10977 31.1842 2.51318 32.1033 2.09395C33.0223 1.6586 34.1268 1.44093 35.4167 1.44093C36.7873 1.44093 37.9482 1.69085 38.8995 2.1907C39.8509 2.67442 40.6006 3.34356 41.1488 4.19814C41.6971 5.05271 42.0357 6.03628 42.1647 7.14884L38.9963 7.29395C38.9157 6.66512 38.7222 6.1169 38.4158 5.6493C38.1256 5.1817 37.7225 4.81891 37.2065 4.56093C36.7067 4.28682 36.094 4.14977 35.3684 4.14977C34.4654 4.14977 33.7479 4.35938 33.2158 4.7786C32.6998 5.1817 32.4419 5.72186 32.4419 6.39907C32.4419 6.86667 32.5467 7.25364 32.7563 7.56C32.982 7.86636 33.3771 8.1324 33.9414 8.35814C34.5057 8.56775 35.2958 8.79349 36.3116 9.03535C37.8434 9.35783 39.0608 9.76899 39.9637 10.2688C40.8667 10.7687 41.5116 11.3491 41.8986 12.0102C42.2856 12.6713 42.4791 13.4291 42.4791 14.2837C42.4791 15.3318 42.213 16.2428 41.6809 17.0167C41.1488 17.7746 40.3991 18.3631 39.4316 18.7823C38.4642 19.1854 37.3274 19.387 36.0214 19.387ZM51.2769 19.2902C49.987 19.2902 48.8664 19.0161 47.9151 18.4679C46.9638 17.9036 46.222 17.1135 45.69 16.0977C45.174 15.0819 44.916 13.8967 44.916 12.5423C44.916 11.1879 45.174 10.0109 45.69 9.01116C46.222 7.99535 46.9638 7.20527 47.9151 6.64093C48.8664 6.07659 49.987 5.79442 51.2769 5.79442C52.3734 5.79442 53.3489 5.98791 54.2034 6.37488C55.058 6.76186 55.7514 7.31814 56.2834 8.04372C56.8317 8.75318 57.1703 9.62387 57.2993 10.6558L54.1067 10.8251C53.9777 10.0028 53.6552 9.38201 53.1393 8.96279C52.6394 8.52744 52.0186 8.30977 51.2769 8.30977C50.2772 8.30977 49.5033 8.68868 48.9551 9.44651C48.4069 10.1882 48.1327 11.2202 48.1327 12.5423C48.1327 13.8806 48.4069 14.9206 48.9551 15.6623C49.5033 16.404 50.2772 16.7749 51.2769 16.7749C52.0348 16.7749 52.6636 16.5572 53.1634 16.1219C53.6794 15.6865 53.9938 15.0093 54.1067 14.0902L57.2993 14.2353C57.1703 15.2673 56.8397 16.1622 56.3076 16.92C55.7755 17.6778 55.0822 18.2664 54.2276 18.6856C53.3731 19.0887 52.3895 19.2902 51.2769 19.2902ZM59.4594 19V6.08465H62.3617L62.4826 9.66419L62.2166 9.61581C62.4101 8.37426 62.7729 7.47938 63.305 6.93116C63.8532 6.36682 64.5949 6.08465 65.5301 6.08465H66.7152V8.74511H65.5059C64.8448 8.74511 64.2966 8.84186 63.8612 9.03535C63.4259 9.22884 63.0953 9.53519 62.8696 9.95442C62.66 10.3575 62.5552 10.8896 62.5552 11.5507V19H59.4594ZM68.7181 19V6.08465H71.8139V19H68.7181ZM68.6697 4.36744V1.61023H71.8865V4.36744H68.6697ZM75.4023 22.6279V6.08465H78.3772L78.4498 8.84186L78.1354 8.69674C78.4578 7.74542 78.9819 7.02791 79.7074 6.54418C80.4492 6.04434 81.3118 5.79442 82.2954 5.79442C83.5208 5.79442 84.5366 6.10077 85.3428 6.71349C86.1651 7.3262 86.7778 8.14046 87.1809 9.15628C87.584 10.1721 87.7856 11.3008 87.7856 12.5423C87.7856 13.7839 87.576 14.9126 87.1567 15.9284C86.7536 16.9442 86.1409 17.7584 85.3186 18.3712C84.5124 18.9839 83.4966 19.2902 82.2712 19.2902C81.6262 19.2902 81.0216 19.1774 80.4572 18.9516C79.909 18.7259 79.4333 18.4034 79.0302 17.9842C78.6433 17.565 78.3692 17.0732 78.2079 16.5088L78.4981 16.267V22.6279H75.4023ZM81.5456 16.7749C82.4808 16.7749 83.2144 16.404 83.7465 15.6623C84.2947 14.9045 84.5688 13.8645 84.5688 12.5423C84.5688 11.2202 84.2947 10.1882 83.7465 9.44651C83.2144 8.68868 82.4808 8.30977 81.5456 8.30977C80.9167 8.30977 80.3766 8.47101 79.9251 8.79349C79.4736 9.09984 79.1189 9.56744 78.8609 10.1963C78.6191 10.8251 78.4981 11.6071 78.4981 12.5423C78.4981 13.4775 78.6191 14.2595 78.8609 14.8884C79.1028 15.5172 79.4495 15.9929 79.9009 16.3153C80.3685 16.6217 80.9167 16.7749 81.5456 16.7749ZM94.915 19C93.6251 19 92.6737 18.7017 92.061 18.1051C91.4644 17.5085 91.1662 16.5733 91.1662 15.2995V3.06139H94.262V15.0093C94.262 15.6059 94.391 16.0251 94.6489 16.267C94.9069 16.4927 95.31 16.6056 95.8582 16.6056H97.6722V19H94.915ZM89.1345 8.47907V6.08465H97.6722V8.47907H89.1345ZM100.303 19V1.8279H103.447V9.66419L110.171 1.8279H113.895L107.462 9.37395L114.306 19H110.703L105.382 11.5265L103.447 13.7274V19H100.303ZM116.075 19V6.08465H119.17V19H116.075ZM116.026 4.36744V1.61023H119.243V4.36744H116.026ZM126.943 19C125.653 19 124.701 18.7017 124.089 18.1051C123.492 17.5085 123.194 16.5733 123.194 15.2995V3.06139H126.29V15.0093C126.29 15.6059 126.419 16.0251 126.677 16.267C126.935 16.4927 127.338 16.6056 127.886 16.6056H129.7V19H126.943ZM121.162 8.47907V6.08465H129.7V8.47907H121.162Z" fill="white"/>
</g>
<defs>
<clipPath id="clip0_1903_45">
<rect width="177" height="24" fill="white"/>
</clipPath>
<clipPath id="clip1_1903_45">
<rect width="20.6221" height="15.9164" fill="white" transform="translate(3.6875 3.04102)"/>
</clipPath>
</defs>
</svg>
